<svg width="20" height="20" viewBox="0 0 20 20" fill="none" xmlns="http://www.w3.org/2000/svg">
<path fill-rule="evenodd" clip-rule="evenodd" d="M9.99986 6.64286C8.14576 6.64286 6.64272 8.1459 6.64272 10C6.64272 11.8541 8.14576 13.3571 9.99986 13.3571C11.854 13.3571 13.357 11.8541 13.357 10C13.357 8.1459 11.854 6.64286 9.99986 6.64286ZM4.78557 10C4.78557 7.12023 7.12009 4.78571 9.99986 4.78571C12.8796 4.78571 15.2141 7.12023 15.2141 10C15.2141 12.8798 12.8796 15.2143 9.99986 15.2143C7.12009 15.2143 4.78557 12.8798 4.78557 10Z" fill="black"/>
<path fill-rule="evenodd" clip-rule="evenodd" d="M15.3313 5.96987C16.0414 5.96987 16.617 5.39423 16.617 4.68415C16.617 3.97407 16.0414 3.39844 15.3313 3.39844C14.6213 3.39844 14.0456 3.97407 14.0456 4.68415C14.0456 5.39423 14.6213 5.96987 15.3313 5.96987Z" fill="black"/>
<path fill-rule="evenodd" clip-rule="evenodd" d="M0 5.42858C0 2.43046 2.43045 0 5.42857 0H14.5714C17.5695 0 20 2.43045 20 5.42857V14.5714C20 17.5695 17.5695 20 14.5714 20H5.42858C2.43046 20 0 17.5695 0 14.5714V5.42858ZM5.42857 1.71429C3.37723 1.71429 1.71429 3.37723 1.71429 5.42858V14.5714C1.71429 16.6228 3.37723 18.2857 5.42858 18.2857H14.5714C16.6228 18.2857 18.2857 16.6228 18.2857 14.5714V5.42857C18.2857 3.37723 16.6228 1.71429 14.5714 1.71429H5.42857Z" fill="black"/>
</svg>
