<svg width="22" height="22" viewBox="0 0 22 22" fill="none" xmlns="http://www.w3.org/2000/svg">
<path fill-rule="evenodd" clip-rule="evenodd" d="M11.0006 0C4.92597 0 0 4.92468 0 11.0006C0 15.5036 2.70877 19.374 6.58564 21.0751C6.55459 20.308 6.58047 19.3844 6.7758 18.5487C6.98795 17.6561 8.19098 12.5555 8.19098 12.5555C8.19098 12.5555 7.84042 11.8531 7.84042 10.8144C7.84042 9.18445 8.78603 7.96719 9.9619 7.96719C10.9618 7.96719 11.4456 8.71876 11.4456 9.6191C11.4456 10.6242 10.804 12.1287 10.4742 13.5218C10.1986 14.69 11.0589 15.6407 12.2101 15.6407C14.2941 15.6407 15.6977 12.9643 15.6977 9.79244C15.6977 7.38249 14.0742 5.57794 11.121 5.57794C7.78479 5.57794 5.706 8.0655 5.706 10.8441C5.706 11.804 5.98801 12.4792 6.43041 13.0018C6.6348 13.2437 6.66196 13.3394 6.58823 13.6163C6.53649 13.8168 6.41489 14.3058 6.36444 14.4985C6.2907 14.7766 6.06562 14.8775 5.81466 14.774C4.27659 14.1466 3.56124 12.4637 3.56124 10.5712C3.56124 7.44717 6.19627 3.69836 11.4224 3.69836C15.6226 3.69836 18.387 6.73958 18.387 10.0007C18.387 14.3161 15.9887 17.5397 12.4508 17.5397C11.2645 17.5397 10.1469 16.8981 9.76398 16.1698C9.76398 16.1698 9.12495 18.7039 8.99042 19.1929C8.75757 20.0402 8.30094 20.8888 7.88311 21.5485C8.8727 21.8409 9.91792 22 11.0006 22C17.0753 22 22 17.0753 22 11.0006C22 4.92468 17.0753 0 11.0006 0Z" fill="black"/>
</svg>
