<svg width="22" height="18" viewBox="0 0 22 18" fill="none" xmlns="http://www.w3.org/2000/svg">
<path fill-rule="evenodd" clip-rule="evenodd" d="M19.7551 4.91831C19.7551 4.72947 19.7551 4.54064 19.7463 4.3518C20.6266 3.73379 21.3926 2.9527 22 2.06861C21.1901 2.42053 20.3185 2.65228 19.403 2.76387C20.3361 2.22311 21.0492 1.35618 21.3926 0.32617C20.521 0.832593 19.5526 1.1931 18.5226 1.39052C17.6951 0.532173 16.5 0 14.6667 0C12.4666 0 10.7139 1.97419 10.7139 4.4033C10.7139 4.74664 10.7579 5.08139 10.8283 5.40756C7.07803 5.22731 3.7503 3.46771 1.52301 0.806843C1.13565 1.45918 0.915566 2.21453 0.915566 3.02137C0.915566 4.54922 1.71669 5.89682 2.92277 6.68649C2.18327 6.66074 1.4878 6.46333 0.880352 6.13716C0.880352 6.15432 0.880352 6.17149 0.880352 6.19724C0.880352 8.32593 2.43858 10.1113 4.4986 10.5147C4.12005 10.6177 3.72389 10.6692 3.31012 10.6692C3.01961 10.6692 2.7379 10.6435 2.46499 10.592C3.03721 12.343 4.70988 13.6133 6.68187 13.6477C5.13245 14.8322 3.18687 15.536 1.07403 15.536C0.713085 15.536 0.352141 15.5188 0 15.4759C1.9896 16.7119 4.78912 17.875 7.33333 17.875C15.6351 17.875 19.7551 10.7293 19.7551 4.91831Z" fill="black"/>
</svg>
