<svg width="22" height="18" viewBox="0 0 22 18" fill="none" xmlns="http://www.w3.org/2000/svg">
<path fill-rule="evenodd" clip-rule="evenodd" d="M3.46925 1.04612C1.45973 1.21329 0 2.91544 0 4.9319V13.0681C0 15.0846 1.45973 16.7867 3.46925 16.9539C5.32787 17.1085 7.88092 17.25 11 17.25C14.1191 17.25 16.6721 17.1085 18.5307 16.9539C20.5403 16.7867 22 15.0846 22 13.0681V4.9319C22 2.91544 20.5403 1.21329 18.5307 1.04612C16.6721 0.891508 14.1191 0.75 11 0.75C7.88092 0.75 5.32787 0.891508 3.46925 1.04612ZM14.5009 9.00013L8.75093 12.4822V5.51784L14.5009 9.00013Z" fill="black"/>
</svg>
